# xmcd
#
# Track frame offsets:
#       150
#       46537
#       89758
#       143028
#       207222
#       231114
#
# Disc length: 3465 seconds
#
# Revision: 1
# Processed by: cddbd v1.4PL0 Copyright (c) Steve Scherf et al.
# Submitted via: MusiCat 1.0
#
DISCID=490d8706
DTITLE=Johnny Winter - Live In Europe 1984
DYEAR=1900
DGENRE=
TTITLE0=Honkey Tonk
TTITLE1=Don't Take Advantage Of Me
TTITLE2=Mad Dog
TTITLE3=Bad Luck And Trouble
TTITLE4=Jumping Jack Flash
TTITLE5=Johnny B. Goode
EXTD=0\n\n\n
EXTT0=
EXTT1=
EXTT2=
EXTT3=
EXTT4=
EXTT5=
PLAYORDER=
